<?xml version="1.0" encoding="UTF-8"?>
<svg xmlns="http://www.w3.org/2000/svg" xmlns:xlink="http://www.w3.org/1999/xlink" width="500" height="500" viewBox="0 0 500 500">
<defs>
<g>
<g id="glyph-0-0-d5bae4c8">
<path d="M 8.109375 0 C 8.109375 0 1.125 0 1.125 0 C 1.125 0 1.125 -10.203125 1.125 -10.203125 C 1.125 -10.203125 3.21875 -10.203125 3.21875 -10.203125 C 3.21875 -10.203125 3.21875 -1.75 3.21875 -1.75 C 3.21875 -1.75 8.109375 -1.75 8.109375 -1.75 C 8.109375 -1.75 8.109375 0 8.109375 0 Z M 8.109375 0 "/>
</g>
<g id="glyph-0-1-d5bae4c8">
<path d="M 7.625 0 C 7.625 0 5.671875 0 5.671875 0 C 5.671875 0 5.671875 -0.875 5.671875 -0.875 C 5.1875 -0.21875 4.515625 0.125 3.578125 0.125 C 1.578125 0.125 0.40625 -1.625 0.40625 -3.765625 C 0.40625 -6.046875 1.78125 -7.6875 3.578125 -7.6875 C 4.515625 -7.6875 5.1875 -7.34375 5.671875 -6.578125 C 5.671875 -6.578125 5.671875 -10.203125 5.671875 -10.203125 C 5.671875 -10.203125 7.625 -10.203125 7.625 -10.203125 C 7.625 -10.203125 7.625 0 7.625 0 Z M 5.671875 -3.734375 C 5.671875 -5.1875 5.015625 -6.046875 4.015625 -6.046875 C 3.03125 -6.046875 2.359375 -5.171875 2.359375 -3.765625 C 2.359375 -2.375 3.03125 -1.515625 4.015625 -1.515625 C 5 -1.515625 5.671875 -2.359375 5.671875 -3.734375 Z M 5.671875 -3.734375 "/>
</g>
<g id="glyph-0-2-d5bae4c8">
<path d="M 5.1875 -5.6875 C 4.90625 -5.71875 4.78125 -5.734375 4.5625 -5.734375 C 3.421875 -5.734375 2.84375 -5.171875 2.84375 -4.015625 C 2.84375 -4.015625 2.84375 0 2.84375 0 C 2.84375 0 0.875 0 0.875 0 C 0.875 0 0.875 -7.5625 0.875 -7.5625 C 0.875 -7.5625 2.84375 -7.5625 2.84375 -7.5625 C 2.84375 -7.5625 2.84375 -6.078125 2.84375 -6.078125 C 3.265625 -7.09375 4.046875 -7.6875 4.9375 -7.6875 C 5 -7.6875 5.0625 -7.6875 5.1875 -7.671875 C 5.1875 -7.671875 5.1875 -5.6875 5.1875 -5.6875 Z M 5.1875 -5.6875 "/>
</g>
<g id="glyph-0-3-d5bae4c8">
<path d="M 2.890625 0 C 2.890625 0 0.9375 0 0.9375 0 C 0.9375 0 0.9375 -7.5625 0.9375 -7.5625 C 0.9375 -7.5625 2.890625 -7.5625 2.890625 -7.5625 C 2.890625 -7.5625 2.890625 0 2.890625 0 Z M 2.921875 -8.46875 C 2.921875 -8.46875 0.96875 -8.46875 0.96875 -8.46875 C 0.96875 -8.46875 0.96875 -10.4375 0.96875 -10.4375 C 0.96875 -10.4375 2.921875 -10.4375 2.921875 -10.4375 C 2.921875 -10.4375 2.921875 -8.46875 2.921875 -8.46875 Z M 2.921875 -8.46875 "/>
</g>
<g id="glyph-0-4-d5bae4c8">
<path d="M 7.5 -7.5625 C 7.5 -7.5625 4.90625 0 4.90625 0 C 4.90625 0 2.84375 0 2.84375 0 C 2.84375 0 0.203125 -7.5625 0.203125 -7.5625 C 0.203125 -7.5625 2.265625 -7.5625 2.265625 -7.5625 C 2.265625 -7.5625 3.90625 -2.03125 3.90625 -2.03125 C 3.90625 -2.03125 5.4375 -7.5625 5.4375 -7.5625 C 5.4375 -7.5625 7.5 -7.5625 7.5 -7.5625 Z M 7.5 -7.5625 "/>
</g>
<g id="glyph-0-5-d5bae4c8">
<path d="M 7.34375 -3.5 C 7.34375 -3.5 7.34375 -3.265625 7.34375 -3.265625 C 7.34375 -3.265625 2.265625 -3.265625 2.265625 -3.265625 C 2.328125 -1.796875 2.90625 -1.375 3.84375 -1.375 C 4.546875 -1.375 5.171875 -1.578125 5.328125 -2.125 C 5.328125 -2.125 7.265625 -2.125 7.265625 -2.125 C 6.828125 -0.640625 5.453125 0.125 3.765625 0.125 C 1.625 0.125 0.3125 -1.265625 0.3125 -3.6875 C 0.3125 -6.21875 1.640625 -7.6875 3.8125 -7.6875 C 6.03125 -7.6875 7.34375 -6.109375 7.34375 -3.5 Z M 5.3125 -4.5625 C 5.203125 -5.640625 4.625 -6.1875 3.78125 -6.1875 C 2.90625 -6.1875 2.421875 -5.609375 2.296875 -4.5625 C 2.296875 -4.5625 5.3125 -4.5625 5.3125 -4.5625 Z M 5.3125 -4.5625 "/>
</g>
<g id="glyph-0-6-d5bae4c8">
<path d="M 7.640625 0 C 7.640625 0 5.6875 0 5.6875 0 C 5.6875 0 5.6875 -4.65625 5.6875 -4.65625 C 5.6875 -5.5625 5.265625 -6.015625 4.421875 -6.015625 C 3.46875 -6.015625 2.84375 -5.4375 2.84375 -4.53125 C 2.84375 -4.53125 2.84375 0 2.84375 0 C 2.84375 0 0.875 0 0.875 0 C 0.875 0 0.875 -7.5625 0.875 -7.5625 C 0.875 -7.5625 2.84375 -7.5625 2.84375 -7.5625 C 2.84375 -7.5625 2.84375 -6.46875 2.84375 -6.46875 C 3.40625 -7.3125 4.09375 -7.6875 5.109375 -7.6875 C 6.71875 -7.6875 7.640625 -6.734375 7.640625 -5.0625 C 7.640625 -5.0625 7.640625 0 7.640625 0 Z M 7.640625 0 "/>
</g>
<g id="glyph-0-7-d5bae4c8">
</g>
<g id="glyph-0-8-d5bae4c8">
<path d="M 7.3125 -2.625 C 7.125 -1.015625 5.859375 0.125 4.015625 0.125 C 1.78125 0.125 0.46875 -1.234375 0.46875 -3.71875 C 0.46875 -6.296875 1.796875 -7.6875 4.046875 -7.6875 C 5.9375 -7.6875 7.171875 -6.578125 7.3125 -4.734375 C 7.3125 -4.734375 5.4375 -4.734375 5.4375 -4.734375 C 5.203125 -5.71875 4.828125 -6.109375 4.03125 -6.109375 C 2.796875 -6.109375 2.4375 -5.109375 2.4375 -3.71875 C 2.4375 -2.25 3.03125 -1.453125 4.03125 -1.453125 C 4.78125 -1.453125 5.1875 -1.828125 5.4375 -2.625 C 5.4375 -2.625 7.3125 -2.625 7.3125 -2.625 Z M 7.3125 -2.625 "/>
</g>
<g id="glyph-0-9-d5bae4c8">
<path d="M 14.046875 -2.890625 C 14.046875 -2.890625 -0.09375 -2.890625 -0.09375 -2.890625 C -0.09375 -2.890625 -0.09375 -4.359375 -0.09375 -4.359375 C -0.09375 -4.359375 14.046875 -4.359375 14.046875 -4.359375 C 14.046875 -4.359375 14.046875 -2.890625 14.046875 -2.890625 Z M 14.046875 -2.890625 "/>
</g>
<g id="glyph-0-10-d5bae4c8">
<path d="M 7.578125 0.25 C 7.578125 2.03125 6.265625 3.046875 3.96875 3.046875 C 1.90625 3.046875 0.65625 2.140625 0.625 0.90625 C 0.625 0.90625 2.65625 0.90625 2.65625 0.90625 C 2.8125 1.484375 3.296875 1.796875 4.046875 1.796875 C 5.03125 1.796875 5.71875 1.15625 5.71875 0.25 C 5.71875 0.25 5.71875 -0.875 5.71875 -0.875 C 4.984375 -0.140625 4.453125 0.125 3.5625 0.125 C 1.703125 0.125 0.46875 -1.34375 0.46875 -3.703125 C 0.46875 -6.03125 1.8125 -7.6875 3.609375 -7.6875 C 4.484375 -7.6875 5.125 -7.296875 5.71875 -6.390625 C 5.71875 -6.390625 5.71875 -7.5625 5.71875 -7.5625 C 5.71875 -7.5625 7.578125 -7.5625 7.578125 -7.5625 C 7.578125 -7.5625 7.578125 0.25 7.578125 0.25 Z M 5.734375 -3.71875 C 5.734375 -5.125 5.015625 -6.046875 4.03125 -6.046875 C 3.078125 -6.046875 2.4375 -5.15625 2.4375 -3.71875 C 2.4375 -2.359375 3.078125 -1.515625 4 -1.515625 C 5.03125 -1.515625 5.734375 -2.359375 5.734375 -3.71875 Z M 5.734375 -3.71875 "/>
</g>
<g id="glyph-0-11-d5bae4c8">
<path d="M 7.96875 -3.71875 C 7.96875 -1.296875 6.53125 0.125 4.234375 0.125 C 1.90625 0.125 0.484375 -1.28125 0.484375 -3.78125 C 0.484375 -6.265625 1.90625 -7.6875 4.21875 -7.6875 C 6.578125 -7.6875 7.96875 -6.28125 7.96875 -3.71875 Z M 6 -3.75 C 6 -5.234375 5.3125 -6.109375 4.234375 -6.109375 C 3.15625 -6.109375 2.453125 -5.21875 2.453125 -3.78125 C 2.453125 -2.34375 3.15625 -1.453125 4.234375 -1.453125 C 5.28125 -1.453125 6 -2.34375 6 -3.75 Z M 6 -3.75 "/>
</g>
<g id="glyph-0-12-d5bae4c8">
<path d="M 11.53125 0 C 11.53125 0 9.578125 0 9.578125 0 C 9.578125 0 9.578125 -5.046875 9.578125 -5.046875 C 9.578125 -5.640625 9.171875 -6.015625 8.515625 -6.015625 C 7.671875 -6.015625 7.171875 -5.453125 7.171875 -4.53125 C 7.171875 -4.53125 7.171875 0 7.171875 0 C 7.171875 0 5.203125 0 5.203125 0 C 5.203125 0 5.203125 -5.046875 5.203125 -5.046875 C 5.203125 -5.640625 4.796875 -6.015625 4.140625 -6.015625 C 3.296875 -6.015625 2.796875 -5.453125 2.796875 -4.53125 C 2.796875 -4.53125 2.796875 0 2.796875 0 C 2.796875 0 0.84375 0 0.84375 0 C 0.84375 0 0.84375 -7.5625 0.84375 -7.5625 C 0.84375 -7.5625 2.78125 -7.5625 2.78125 -7.5625 C 2.78125 -7.5625 2.78125 -6.625 2.78125 -6.625 C 3.4375 -7.390625 3.984375 -7.6875 4.859375 -7.6875 C 5.796875 -7.6875 6.546875 -7.28125 6.921875 -6.5625 C 7.5 -7.34375 8.171875 -7.6875 9.125 -7.6875 C 10.640625 -7.6875 11.53125 -6.8125 11.53125 -5.34375 C 11.53125 -5.34375 11.53125 0 11.53125 0 Z M 11.53125 0 "/>
</g>
<g id="glyph-0-13-d5bae4c8">
<path d="M 7.53125 -7.5625 C 7.53125 -7.5625 4.421875 1.390625 4.421875 1.390625 C 3.90625 2.828125 3.21875 3.0625 1.90625 3.0625 C 1.671875 3.0625 1.5 3.046875 1.203125 3.015625 C 1.203125 3.015625 1.203125 1.546875 1.203125 1.546875 C 1.453125 1.609375 1.5625 1.625 1.71875 1.625 C 2.40625 1.625 2.9375 1.078125 2.9375 0.359375 C 2.9375 0.359375 2.9375 0.328125 2.9375 0.328125 C 2.9375 0.328125 0.125 -7.5625 0.125 -7.5625 C 0.125 -7.5625 2.28125 -7.5625 2.28125 -7.5625 C 2.28125 -7.5625 3.953125 -2.0625 3.953125 -2.0625 C 3.953125 -2.0625 5.515625 -7.5625 5.515625 -7.5625 C 5.515625 -7.5625 7.53125 -7.5625 7.53125 -7.5625 Z M 7.53125 -7.5625 "/>
</g>
<g id="glyph-1-0-d5bae4c8">
<path d="M 2.890625 0 C 2.890625 0 0.9375 0 0.9375 0 C 0.9375 0 0.9375 -7.5625 0.9375 -7.5625 C 0.9375 -7.5625 2.890625 -7.5625 2.890625 -7.5625 C 2.890625 -7.5625 2.890625 0 2.890625 0 Z M 2.921875 -8.46875 C 2.921875 -8.46875 0.96875 -8.46875 0.96875 -8.46875 C 0.96875 -8.46875 0.96875 -10.4375 0.96875 -10.4375 C 0.96875 -10.4375 2.921875 -10.4375 2.921875 -10.4375 C 2.921875 -10.4375 2.921875 -8.46875 2.921875 -8.46875 Z M 2.921875 -8.46875 "/>
</g>
<g id="glyph-1-1-d5bae4c8">
<path d="M 4.171875 -2.890625 C 4.171875 -2.890625 0.359375 -2.890625 0.359375 -2.890625 C 0.359375 -2.890625 0.359375 -4.78125 0.359375 -4.78125 C 0.359375 -4.78125 4.171875 -4.78125 4.171875 -4.78125 C 4.171875 -4.78125 4.171875 -2.890625 4.171875 -2.890625 Z M 4.171875 -2.890625 "/>
</g>
<g id="glyph-2-0-d5bae4c8">
<path d="M 7.34375 0 C 7.34375 0 5.203125 0 5.203125 0 C 5.03125 -0.21875 4.984375 -0.5625 4.984375 -0.953125 C 4.296875 -0.234375 3.53125 0.125 2.6875 0.125 C 1.421875 0.125 0.390625 -0.578125 0.390625 -2.046875 C 0.390625 -3.421875 1.125 -4.0625 2.625 -4.328125 C 2.625 -4.328125 3.40625 -4.46875 3.40625 -4.46875 C 4.375 -4.640625 4.96875 -4.546875 4.96875 -5.34375 C 4.96875 -5.859375 4.59375 -6.109375 3.84375 -6.109375 C 2.875 -6.109375 2.546875 -5.859375 2.453125 -5.0625 C 2.453125 -5.0625 0.5625 -5.0625 0.5625 -5.0625 C 0.6875 -6.8125 1.75 -7.6875 3.796875 -7.6875 C 5.84375 -7.6875 6.890625 -6.90625 6.890625 -5.359375 C 6.890625 -5.359375 6.890625 -1.15625 6.890625 -1.15625 C 6.890625 -0.765625 6.984375 -0.5625 7.34375 -0.234375 C 7.34375 -0.234375 7.34375 0 7.34375 0 Z M 4.96875 -3.234375 C 4.96875 -3.234375 4.96875 -3.5625 4.96875 -3.5625 C 4.75 -3.453125 4.65625 -3.4375 4.140625 -3.328125 C 4.140625 -3.328125 3.46875 -3.203125 3.46875 -3.203125 C 2.65625 -3.046875 2.359375 -2.84375 2.359375 -2.265625 C 2.359375 -1.703125 2.765625 -1.453125 3.421875 -1.453125 C 4.40625 -1.453125 4.96875 -2.09375 4.96875 -3.234375 Z M 4.96875 -3.234375 "/>
</g>
<g id="glyph-2-1-d5bae4c8">
<path d="M 2.890625 0 C 2.890625 0 0.9375 0 0.9375 0 C 0.9375 0 0.9375 -7.5625 0.9375 -7.5625 C 0.9375 -7.5625 2.890625 -7.5625 2.890625 -7.5625 C 2.890625 -7.5625 2.890625 0 2.890625 0 Z M 2.921875 -8.46875 C 2.921875 -8.46875 0.96875 -8.46875 0.96875 -8.46875 C 0.96875 -8.46875 0.96875 -10.4375 0.96875 -10.4375 C 0.96875 -10.4375 2.921875 -10.4375 2.921875 -10.4375 C 2.921875 -10.4375 2.921875 -8.46875 2.921875 -8.46875 Z M 2.921875 -8.46875 "/>
</g>
<g id="glyph-2-2-d5bae4c8">
<path d="M 4.21875 0 C 3.859375 0.015625 3.515625 0.0625 3.078125 0.0625 C 1.796875 0.0625 1.15625 -0.4375 1.15625 -1.625 C 1.15625 -1.625 1.15625 -6.109375 1.15625 -6.109375 C 1.15625 -6.109375 0.203125 -6.109375 0.203125 -6.109375 C 0.203125 -6.109375 0.203125 -7.40625 0.203125 -7.40625 C 0.203125 -7.40625 1.15625 -7.40625 1.15625 -7.40625 C 1.15625 -7.40625 1.15625 -9.4375 1.15625 -9.4375 C 1.15625 -9.4375 3.125 -9.4375 3.125 -9.4375 C 3.125 -9.4375 3.125 -7.40625 3.125 -7.40625 C 3.125 -7.40625 4.21875 -7.40625 4.21875 -7.40625 C 4.21875 -7.40625 4.21875 -6.109375 4.21875 -6.109375 C 4.21875 -6.109375 3.125 -6.109375 3.125 -6.109375 C 3.125 -6.109375 3.125 -2.15625 3.125 -2.15625 C 3.125 -1.484375 3.25 -1.328125 3.765625 -1.328125 C 3.90625 -1.328125 4.015625 -1.34375 4.21875 -1.375 C 4.21875 -1.375 4.21875 0 4.21875 0 Z M 4.21875 0 "/>
</g>
<g id="glyph-3-0-d5bae4c8">
<path d="M 7.53125 -7.5625 C 7.53125 -7.5625 4.421875 1.390625 4.421875 1.390625 C 3.90625 2.828125 3.21875 3.0625 1.90625 3.0625 C 1.671875 3.0625 1.5 3.046875 1.203125 3.015625 C 1.203125 3.015625 1.203125 1.546875 1.203125 1.546875 C 1.453125 1.609375 1.5625 1.625 1.71875 1.625 C 2.40625 1.625 2.9375 1.078125 2.9375 0.359375 C 2.9375 0.359375 2.9375 0.328125 2.9375 0.328125 C 2.9375 0.328125 0.125 -7.5625 0.125 -7.5625 C 0.125 -7.5625 2.28125 -7.5625 2.28125 -7.5625 C 2.28125 -7.5625 3.953125 -2.0625 3.953125 -2.0625 C 3.953125 -2.0625 5.515625 -7.5625 5.515625 -7.5625 C 5.515625 -7.5625 7.53125 -7.5625 7.53125 -7.5625 Z M 7.53125 -7.5625 "/>
</g>
<g id="glyph-4-0-d5bae4c8">
</g>
<g id="glyph-4-1-d5bae4c8">
<path d="M 4.21875 0 C 3.859375 0.015625 3.515625 0.0625 3.078125 0.0625 C 1.796875 0.0625 1.15625 -0.4375 1.15625 -1.625 C 1.15625 -1.625 1.15625 -6.109375 1.15625 -6.109375 C 1.15625 -6.109375 0.203125 -6.109375 0.203125 -6.109375 C 0.203125 -6.109375 0.203125 -7.40625 0.203125 -7.40625 C 0.203125 -7.40625 1.15625 -7.40625 1.15625 -7.40625 C 1.15625 -7.40625 1.15625 -9.4375 1.15625 -9.4375 C 1.15625 -9.4375 3.125 -9.4375 3.125 -9.4375 C 3.125 -9.4375 3.125 -7.40625 3.125 -7.40625 C 3.125 -7.40625 4.21875 -7.40625 4.21875 -7.40625 C 4.21875 -7.40625 4.21875 -6.109375 4.21875 -6.109375 C 4.21875 -6.109375 3.125 -6.109375 3.125 -6.109375 C 3.125 -6.109375 3.125 -2.15625 3.125 -2.15625 C 3.125 -1.484375 3.25 -1.328125 3.765625 -1.328125 C 3.90625 -1.328125 4.015625 -1.34375 4.21875 -1.375 C 4.21875 -1.375 4.21875 0 4.21875 0 Z M 4.21875 0 "/>
</g>
<g id="glyph-5-0-d5bae4c8">
<path d="M 6.265625 0 C 6.265625 0 5.296875 0 5.296875 0 C 5.296875 0 5.296875 -1.046875 5.296875 -1.046875 C 4.65625 -0.15625 4.015625 0.1875 3.015625 0.1875 C 1.6875 0.1875 0.84375 -0.53125 0.84375 -1.65625 C 0.84375 -1.65625 0.84375 -6.8125 0.84375 -6.8125 C 0.84375 -6.8125 1.921875 -6.8125 1.921875 -6.8125 C 1.921875 -6.8125 1.921875 -2.09375 1.921875 -2.09375 C 1.921875 -1.28125 2.46875 -0.75 3.328125 -0.75 C 4.453125 -0.75 5.1875 -1.65625 5.1875 -3.0625 C 5.1875 -3.0625 5.1875 -6.8125 5.1875 -6.8125 C 5.1875 -6.8125 6.265625 -6.8125 6.265625 -6.8125 C 6.265625 -6.8125 6.265625 0 6.265625 0 Z M 6.265625 0 "/>
</g>
<g id="glyph-5-1-d5bae4c8">
<path d="M 7.515625 2.296875 C 7.515625 2.296875 -0.28125 2.296875 -0.28125 2.296875 C -0.28125 2.296875 -0.28125 1.65625 -0.28125 1.65625 C -0.28125 1.65625 7.515625 1.65625 7.515625 1.65625 C 7.515625 1.65625 7.515625 2.296875 7.515625 2.296875 Z M 7.515625 2.296875 "/>
</g>
<g id="glyph-5-2-d5bae4c8">
<path d="M 6.4375 0 C 6.4375 0 5.46875 0 5.46875 0 C 5.46875 0 5.46875 -1 5.46875 -1 C 4.890625 -0.15625 4.234375 0.1875 3.296875 0.1875 C 1.46875 0.1875 0.34375 -1.171875 0.34375 -3.46875 C 0.34375 -5.640625 1.5 -7 3.265625 -7 C 4.171875 -7 4.90625 -6.640625 5.359375 -5.953125 C 5.359375 -5.953125 5.359375 -9.484375 5.359375 -9.484375 C 5.359375 -9.484375 6.4375 -9.484375 6.4375 -9.484375 C 6.4375 -9.484375 6.4375 0 6.4375 0 Z M 5.359375 -3.375 C 5.359375 -4.953125 4.609375 -6 3.4375 -6 C 2.265625 -6 1.46875 -4.984375 1.46875 -3.40625 C 1.46875 -1.8125 2.265625 -0.8125 3.453125 -0.8125 C 4.609375 -0.8125 5.359375 -1.8125 5.359375 -3.375 Z M 5.359375 -3.375 "/>
</g>
<g id="glyph-6-0-d5bae4c8">
<path d="M 1.96875 0 C 1.96875 0 0.890625 0 0.890625 0 C 0.890625 0 0.890625 -9.484375 0.890625 -9.484375 C 0.890625 -9.484375 1.96875 -9.484375 1.96875 -9.484375 C 1.96875 -9.484375 1.96875 0 1.96875 0 Z M 1.96875 0 "/>
</g>
<g id="glyph-7-0-d5bae4c8">
<path d="M 1.984375 0 C 1.984375 0 0.90625 0 0.90625 0 C 0.90625 0 0.90625 -6.8125 0.90625 -6.8125 C 0.90625 -6.8125 1.984375 -6.8125 1.984375 -6.8125 C 1.984375 -6.8125 1.984375 0 1.984375 0 Z M 2.125 -7.84375 C 2.125 -7.84375 0.78125 -7.84375 0.78125 -7.84375 C 0.78125 -7.84375 0.78125 -9.1875 0.78125 -9.1875 C 0.78125 -9.1875 2.125 -9.1875 2.125 -9.1875 C 2.125 -9.1875 2.125 -7.84375 2.125 -7.84375 Z M 2.125 -7.84375 "/>
</g>
<g id="glyph-8-0-d5bae4c8">
<path d="M 5.75 -2.953125 C 5.75 -1.078125 4.765625 0.171875 3.25 0.171875 C 2.4375 0.171875 1.859375 -0.15625 1.421875 -0.828125 C 1.421875 -0.828125 1.421875 0 1.421875 0 C 1.421875 0 0.59375 0 0.59375 0 C 0.59375 0 0.59375 -8.015625 0.59375 -8.015625 C 0.59375 -8.015625 1.5 -8.015625 1.5 -8.015625 C 1.5 -8.015625 1.5 -4.984375 1.5 -4.984375 C 1.9375 -5.625 2.5 -5.921875 3.28125 -5.921875 C 4.8125 -5.921875 5.75 -4.8125 5.75 -2.953125 Z M 4.796875 -2.890625 C 4.796875 -4.1875 4.140625 -5.078125 3.109375 -5.078125 C 2.140625 -5.109375 1.5 -4.234375 1.5 -2.875 C 1.5 -1.578125 2.140625 -0.6875 3.109375 -0.6875 C 4.109375 -0.6875 4.796875 -1.578125 4.796875 -2.890625 Z M 4.796875 -2.890625 "/>
</g>
<g id="glyph-8-1-d5bae4c8">
<path d="M 7.78125 -5.765625 C 7.78125 -5.765625 6.09375 0 6.09375 0 C 6.09375 0 5.046875 0 5.046875 0 C 5.046875 0 3.890625 -4.515625 3.890625 -4.515625 C 3.890625 -4.515625 2.765625 0 2.765625 0 C 2.765625 0 1.734375 0 1.734375 0 C 1.734375 0 0.0625 -5.765625 0.0625 -5.765625 C 0.0625 -5.765625 1.078125 -5.765625 1.078125 -5.765625 C 1.078125 -5.765625 2.25 -1.28125 2.25 -1.28125 C 2.25 -1.28125 3.359375 -5.765625 3.359375 -5.765625 C 3.359375 -5.765625 4.484375 -5.765625 4.484375 -5.765625 C 4.484375 -5.765625 5.609375 -1.28125 5.609375 -1.28125 C 5.609375 -1.28125 6.75 -5.765625 6.75 -5.765625 C 6.75 -5.765625 7.78125 -5.765625 7.78125 -5.765625 Z M 7.78125 -5.765625 "/>
</g>
<g id="glyph-8-2-d5bae4c8">
<path d="M 1.65625 0 C 1.65625 0 0.75 0 0.75 0 C 0.75 0 0.75 -8.015625 0.75 -8.015625 C 0.75 -8.015625 1.65625 -8.015625 1.65625 -8.015625 C 1.65625 -8.015625 1.65625 0 1.65625 0 Z M 1.65625 0 "/>
</g>
<g id="glyph-9-0-d5bae4c8">
<path d="M 5.609375 -2.84375 C 5.609375 -0.953125 4.625 0.171875 3 0.171875 C 1.359375 0.171875 0.390625 -0.953125 0.390625 -2.875 C 0.390625 -4.8125 1.375 -5.921875 2.984375 -5.921875 C 4.65625 -5.921875 5.609375 -4.828125 5.609375 -2.84375 Z M 4.65625 -2.84375 C 4.65625 -4.28125 4.03125 -5.078125 3 -5.078125 C 1.984375 -5.078125 1.359375 -4.265625 1.359375 -2.875 C 1.359375 -1.484375 1.984375 -0.6875 3 -0.6875 C 4.015625 -0.6875 4.65625 -1.5 4.65625 -2.84375 Z M 4.65625 -2.84375 "/>
</g>
<g id="glyph-9-1-d5bae4c8">
<path d="M 2.796875 0 C 2.484375 0.0625 2.265625 0.078125 2.046875 0.078125 C 1.328125 0.078125 0.9375 -0.25 0.9375 -0.84375 C 0.9375 -0.84375 0.9375 -5.015625 0.9375 -5.015625 C 0.9375 -5.015625 0.15625 -5.015625 0.15625 -5.015625 C 0.15625 -5.015625 0.15625 -5.765625 0.15625 -5.765625 C 0.15625 -5.765625 0.9375 -5.765625 0.9375 -5.765625 C 0.9375 -5.765625 0.9375 -7.34375 0.9375 -7.34375 C 0.9375 -7.34375 1.84375 -7.34375 1.84375 -7.34375 C 1.84375 -7.34375 1.84375 -5.765625 1.84375 -5.765625 C 1.84375 -5.765625 2.796875 -5.765625 2.796875 -5.765625 C 2.796875 -5.765625 2.796875 -5.015625 2.796875 -5.015625 C 2.796875 -5.015625 1.84375 -5.015625 1.84375 -5.015625 C 1.84375 -5.015625 1.84375 -1.25 1.84375 -1.25 C 1.84375 -0.84375 1.953125 -0.71875 2.359375 -0.71875 C 2.53125 -0.71875 2.671875 -0.734375 2.796875 -0.765625 C 2.796875 -0.765625 2.796875 0 2.796875 0 Z M 2.796875 0 "/>
</g>
<g id="glyph-9-2-d5bae4c8">
<path d="M 8.359375 0 C 8.359375 0 7.453125 0 7.453125 0 C 7.453125 0 7.453125 -3.96875 7.453125 -3.96875 C 7.453125 -4.703125 7.0625 -5.125 6.390625 -5.125 C 5.640625 -5.125 5.03125 -4.453125 5.03125 -3.625 C 5.03125 -3.625 5.03125 0 5.03125 0 C 5.03125 0 4.109375 0 4.109375 0 C 4.109375 0 4.109375 -3.96875 4.109375 -3.96875 C 4.109375 -4.703125 3.734375 -5.125 3.046875 -5.125 C 2.296875 -5.125 1.6875 -4.453125 1.6875 -3.625 C 1.6875 -3.625 1.6875 0 1.6875 0 C 1.6875 0 0.78125 0 0.78125 0 C 0.78125 0 0.78125 -5.765625 0.78125 -5.765625 C 0.78125 -5.765625 1.609375 -5.765625 1.609375 -5.765625 C 1.609375 -5.765625 1.609375 -4.953125 1.609375 -4.953125 C 2.109375 -5.640625 2.625 -5.921875 3.390625 -5.921875 C 4.140625 -5.921875 4.59375 -5.671875 4.9375 -5.046875 C 5.484375 -5.703125 5.9375 -5.921875 6.703125 -5.921875 C 7.78125 -5.921875 8.359375 -5.359375 8.359375 -4.328125 C 8.359375 -4.328125 8.359375 0 8.359375 0 Z M 8.359375 0 "/>
</g>
<g id="glyph-9-3-d5bae4c8">
<path d="M 5.890625 -0.015625 C 5.59375 0.0625 5.4375 0.078125 5.265625 0.078125 C 4.8125 0.078125 4.40625 -0.234375 4.3125 -0.6875 C 3.8125 -0.140625 3.09375 0.171875 2.359375 0.171875 C 1.1875 0.171875 0.46875 -0.453125 0.46875 -1.5 C 0.46875 -2.203125 0.796875 -2.71875 1.46875 -2.984375 C 1.828125 -3.140625 2.03125 -3.171875 3.328125 -3.34375 C 4.046875 -3.4375 4.28125 -3.59375 4.28125 -3.984375 C 4.28125 -3.984375 4.28125 -4.21875 4.28125 -4.21875 C 4.28125 -4.78125 3.8125 -5.078125 2.984375 -5.078125 C 2.140625 -5.078125 1.71875 -4.765625 1.640625 -4.0625 C 1.640625 -4.0625 0.71875 -4.0625 0.71875 -4.0625 C 0.765625 -5.390625 1.625 -5.921875 3.03125 -5.921875 C 4.4375 -5.921875 5.1875 -5.375 5.1875 -4.359375 C 5.1875 -4.359375 5.1875 -1.140625 5.1875 -1.140625 C 5.1875 -0.859375 5.375 -0.6875 5.6875 -0.6875 C 5.734375 -0.6875 5.78125 -0.6875 5.890625 -0.71875 C 5.890625 -0.71875 5.890625 -0.015625 5.890625 -0.015625 Z M 4.28125 -1.984375 C 4.28125 -1.984375 4.28125 -2.84375 4.28125 -2.84375 C 3.96875 -2.703125 3.765625 -2.65625 2.8125 -2.53125 C 1.828125 -2.390625 1.421875 -2.125 1.421875 -1.515625 C 1.421875 -0.890625 1.84375 -0.640625 2.546875 -0.640625 C 3.4375 -0.640625 4.28125 -1.171875 4.28125 -1.984375 Z M 4.28125 -1.984375 "/>
</g>
<g id="glyph-10-0-d5bae4c8">
<path d="M 5.609375 -2.84375 C 5.609375 -0.953125 4.625 0.171875 3 0.171875 C 1.359375 0.171875 0.390625 -0.953125 0.390625 -2.875 C 0.390625 -4.8125 1.375 -5.921875 2.984375 -5.921875 C 4.65625 -5.921875 5.609375 -4.828125 5.609375 -2.84375 Z M 4.65625 -2.84375 C 4.65625 -4.28125 4.03125 -5.078125 3 -5.078125 C 1.984375 -5.078125 1.359375 -4.265625 1.359375 -2.875 C 1.359375 -1.484375 1.984375 -0.6875 3 -0.6875 C 4.015625 -0.6875 4.65625 -1.5 4.65625 -2.84375 Z M 4.65625 -2.84375 "/>
</g>
<g id="glyph-10-1-d5bae4c8">
</g>
<g id="glyph-10-2-d5bae4c8">
<path d="M 1.65625 0 C 1.65625 0 0.75 0 0.75 0 C 0.75 0 0.75 -8.015625 0.75 -8.015625 C 0.75 -8.015625 1.65625 -8.015625 1.65625 -8.015625 C 1.65625 -8.015625 1.65625 0 1.65625 0 Z M 1.65625 0 "/>
</g>
<g id="glyph-11-0-d5bae4c8">
<path d="M 0 -1.65625 C 0 -1.65625 0 -0.75 0 -0.75 C 0 -0.75 -8.015625 -0.75 -8.015625 -0.75 C -8.015625 -0.75 -8.015625 -1.65625 -8.015625 -1.65625 C -8.015625 -1.65625 0 -1.65625 0 -1.65625 Z M 0 -1.65625 "/>
</g>
<g id="glyph-11-1-d5bae4c8">
<path d="M -2.625 -5.640625 C -2.625 -5.640625 -2.625 -1.390625 -2.625 -1.390625 C -1.296875 -1.421875 -0.6875 -2.140625 -0.6875 -3.09375 C -0.6875 -3.828125 -0.984375 -4.34375 -1.75 -4.59375 C -1.75 -4.59375 -1.75 -5.515625 -1.75 -5.515625 C -0.578125 -5.296875 0.171875 -4.375 0.171875 -3.0625 C 0.171875 -1.4375 -0.953125 -0.4375 -2.84375 -0.4375 C -4.734375 -0.4375 -5.921875 -1.46875 -5.921875 -3.078125 C -5.921875 -4.15625 -5.359375 -5.03125 -4.40625 -5.40625 C -3.984375 -5.578125 -3.453125 -5.640625 -2.625 -5.640625 Z M -3.4375 -4.65625 C -4.328125 -4.65625 -5.078125 -3.96875 -5.078125 -3.0625 C -5.078125 -2.140625 -4.390625 -1.5 -3.359375 -1.421875 C -3.359375 -1.421875 -3.359375 -4.65625 -3.359375 -4.65625 C -3.390625 -4.65625 -3.4375 -4.65625 -3.4375 -4.65625 Z M -3.4375 -4.65625 "/>
</g>
<g id="glyph-12-0-d5bae4c8">
<path d="M -5.015625 -2.84375 C -5.015625 -2.84375 -5.015625 -1.875 -5.015625 -1.875 C -5.015625 -1.875 0 -1.875 0 -1.875 C 0 -1.875 0 -0.96875 0 -0.96875 C 0 -0.96875 -5.015625 -0.96875 -5.015625 -0.96875 C -5.015625 -0.96875 -5.015625 -0.203125 -5.015625 -0.203125 C -5.015625 -0.203125 -5.765625 -0.203125 -5.765625 -0.203125 C -5.765625 -0.203125 -5.765625 -0.96875 -5.765625 -0.96875 C -5.765625 -0.96875 -6.75 -0.96875 -6.75 -0.96875 C -7.5625 -0.96875 -8.046875 -1.46875 -8.046875 -2.328125 C -8.046875 -2.515625 -8.046875 -2.625 -8 -2.84375 C -8 -2.84375 -7.234375 -2.84375 -7.234375 -2.84375 C -7.25 -2.625 -7.25 -2.59375 -7.25 -2.515625 C -7.25 -2.09375 -7.046875 -1.875 -6.671875 -1.875 C -6.671875 -1.875 -5.765625 -1.875 -5.765625 -1.875 C -5.765625 -1.875 -5.765625 -2.84375 -5.765625 -2.84375 C -5.765625 -2.84375 -5.015625 -2.84375 -5.015625 -2.84375 Z M -5.015625 -2.84375 "/>
</g>
<g id="glyph-13-0-d5bae4c8">
<path d="M 0 -2.796875 C 0.0625 -2.484375 0.078125 -2.265625 0.078125 -2.046875 C 0.078125 -1.328125 -0.25 -0.9375 -0.84375 -0.9375 C -0.84375 -0.9375 -5.015625 -0.9375 -5.015625 -0.9375 C -5.015625 -0.9375 -5.015625 -0.15625 -5.015625 -0.15625 C -5.015625 -0.15625 -5.765625 -0.15625 -5.765625 -0.15625 C -5.765625 -0.15625 -5.765625 -0.9375 -5.765625 -0.9375 C -5.765625 -0.9375 -7.34375 -0.9375 -7.34375 -0.9375 C -7.34375 -0.9375 -7.34375 -1.84375 -7.34375 -1.84375 C -7.34375 -1.84375 -5.765625 -1.84375 -5.765625 -1.84375 C -5.765625 -1.84375 -5.765625 -2.796875 -5.765625 -2.796875 C -5.765625 -2.796875 -5.015625 -2.796875 -5.015625 -2.796875 C -5.015625 -2.796875 -5.015625 -1.84375 -5.015625 -1.84375 C -5.015625 -1.84375 -1.25 -1.84375 -1.25 -1.84375 C -0.84375 -1.84375 -0.71875 -1.953125 -0.71875 -2.359375 C -0.71875 -2.53125 -0.734375 -2.671875 -0.765625 -2.796875 C -0.765625 -2.796875 0 -2.796875 0 -2.796875 Z M 0 -2.796875 "/>
</g>
<g id="glyph-14-0-d5bae4c8">
</g>
<g id="glyph-15-0-d5bae4c8">
<path d="M -5.765625 -7.78125 C -5.765625 -7.78125 0 -6.09375 0 -6.09375 C 0 -6.09375 0 -5.046875 0 -5.046875 C 0 -5.046875 -4.515625 -3.890625 -4.515625 -3.890625 C -4.515625 -3.890625 0 -2.765625 0 -2.765625 C 0 -2.765625 0 -1.734375 0 -1.734375 C 0 -1.734375 -5.765625 -0.0625 -5.765625 -0.0625 C -5.765625 -0.0625 -5.765625 -1.078125 -5.765625 -1.078125 C -5.765625 -1.078125 -1.28125 -2.25 -1.28125 -2.25 C -1.28125 -2.25 -5.765625 -3.359375 -5.765625 -3.359375 C -5.765625 -3.359375 -5.765625 -4.484375 -5.765625 -4.484375 C -5.765625 -4.484375 -1.28125 -5.609375 -1.28125 -5.609375 C -1.28125 -5.609375 -5.765625 -6.75 -5.765625 -6.75 C -5.765625 -6.75 -5.765625 -7.78125 -5.765625 -7.78125 Z M -5.765625 -7.78125 "/>
</g>
<g id="glyph-16-0-d5bae4c8">
<path d="M -0.015625 -5.890625 C 0.0625 -5.59375 0.078125 -5.4375 0.078125 -5.265625 C 0.078125 -4.8125 -0.234375 -4.40625 -0.6875 -4.3125 C -0.140625 -3.8125 0.171875 -3.09375 0.171875 -2.359375 C 0.171875 -1.1875 -0.453125 -0.46875 -1.5 -0.46875 C -2.203125 -0.46875 -2.71875 -0.796875 -2.984375 -1.46875 C -3.140625 -1.828125 -3.171875 -2.03125 -3.34375 -3.328125 C -3.4375 -4.046875 -3.59375 -4.28125 -3.984375 -4.28125 C -3.984375 -4.28125 -4.21875 -4.28125 -4.21875 -4.28125 C -4.78125 -4.28125 -5.078125 -3.8125 -5.078125 -2.984375 C -5.078125 -2.140625 -4.765625 -1.71875 -4.0625 -1.640625 C -4.0625 -1.640625 -4.0625 -0.71875 -4.0625 -0.71875 C -5.390625 -0.765625 -5.921875 -1.625 -5.921875 -3.03125 C -5.921875 -4.4375 -5.375 -5.1875 -4.359375 -5.1875 C -4.359375 -5.1875 -1.140625 -5.1875 -1.140625 -5.1875 C -0.859375 -5.1875 -0.6875 -5.375 -0.6875 -5.6875 C -0.6875 -5.734375 -0.6875 -5.78125 -0.71875 -5.890625 C -0.71875 -5.890625 -0.015625 -5.890625 -0.015625 -5.890625 Z M -1.984375 -4.28125 C -1.984375 -4.28125 -2.84375 -4.28125 -2.84375 -4.28125 C -2.703125 -3.96875 -2.65625 -3.765625 -2.53125 -2.8125 C -2.390625 -1.828125 -2.125 -1.421875 -1.515625 -1.421875 C -0.890625 -1.421875 -0.640625 -1.84375 -0.640625 -2.546875 C -0.640625 -3.4375 -1.171875 -4.28125 -1.984375 -4.28125 Z M -1.984375 -4.28125 "/>
</g>
<g id="glyph-17-0-d5bae4c8">
<path d="M 0 -1.65625 C 0 -1.65625 0 -0.75 0 -0.75 C 0 -0.75 -8.015625 -0.75 -8.015625 -0.75 C -8.015625 -0.75 -8.015625 -1.65625 -8.015625 -1.65625 C -8.015625 -1.65625 0 -1.65625 0 -1.65625 Z M 0 -1.65625 "/>
</g>
<g id="glyph-18-0-d5bae4c8">
<path d="M 0 -1.65625 C 0 -1.65625 0 -0.75 0 -0.75 C 0 -0.75 -8.015625 -0.75 -8.015625 -0.75 C -8.015625 -0.75 -8.015625 -1.65625 -8.015625 -1.65625 C -8.015625 -1.65625 0 -1.65625 0 -1.65625 Z M 0 -1.65625 "/>
</g>
<g id="glyph-19-0-d5bae4c8">
<path d="M 4.96875 3.53125 C 4.9375 2.109375 4.296875 1.6875 2.984375 1.6875 C 2.984375 1.6875 0 1.6875 0 1.6875 C 0 1.6875 0 0.765625 0 0.765625 C 0 0.765625 5.765625 0.765625 5.765625 0.765625 C 5.765625 0.765625 5.765625 1.609375 5.765625 1.609375 C 5.765625 1.609375 4.71875 1.609375 4.71875 1.609375 C 5.578125 2.140625 5.921875 2.578125 5.921875 3.171875 C 5.921875 3.296875 5.921875 3.375 5.890625 3.53125 C 5.890625 3.53125 4.96875 3.53125 4.96875 3.53125 Z M 4.96875 3.53125 "/>
</g>
<g id="glyph-19-1-d5bae4c8">
<path d="M 0 5.34375 C 0 5.34375 0 4.4375 0 4.4375 C 0 4.4375 4 4.4375 4 4.4375 C 4.75 4.4375 5.125 3.890625 5.125 3.25 C 5.125 2.296875 4.359375 1.6875 3.171875 1.6875 C 3.171875 1.6875 0 1.6875 0 1.6875 C 0 1.6875 0 0.765625 0 0.765625 C 0 0.765625 8.015625 0.765625 8.015625 0.765625 C 8.015625 0.765625 8.015625 1.6875 8.015625 1.6875 C 8.015625 1.6875 4.96875 1.6875 4.96875 1.6875 C 5.671875 2.21875 5.921875 2.71875 5.921875 3.53125 C 5.921875 4.65625 5.328125 5.34375 4.359375 5.34375 C 4.359375 5.34375 0 5.34375 0 5.34375 Z M 0 5.34375 "/>
</g>
<g id="glyph-20-0-d5bae4c8">
<path d="M 0 1.6875 C 0 1.6875 0 0.765625 0 0.765625 C 0 0.765625 5.765625 0.765625 5.765625 0.765625 C 5.765625 0.765625 5.765625 1.6875 5.765625 1.6875 C 5.765625 1.6875 0 1.6875 0 1.6875 Z M 6.640625 1.796875 C 6.640625 1.796875 6.640625 0.65625 6.640625 0.65625 C 6.640625 0.65625 7.78125 0.65625 7.78125 0.65625 C 7.78125 0.65625 7.78125 1.796875 7.78125 1.796875 C 7.78125 1.796875 6.640625 1.796875 6.640625 1.796875 Z M 6.640625 1.796875 "/>
</g>
<g id="glyph-20-1-d5bae4c8">
<path d="M 0.953125 5.375 C -1.59375 5.375 -2.390625 4.609375 -2.390625 2.8125 C -2.390625 1.453125 -1.75 0.609375 -0.65625 0.5 C -0.65625 0.5 -0.65625 1.4375 -0.65625 1.4375 C -1.359375 1.546875 -1.625 2.109375 -1.625 2.84375 C -1.625 3.90625 -1.046875 4.53125 0.484375 4.53125 C 0.484375 4.53125 0.875 4.53125 0.875 4.53125 C 0.140625 3.921875 -0.171875 3.421875 -0.171875 2.6875 C -0.171875 1.34375 1.015625 0.3125 2.828125 0.3125 C 4.703125 0.3125 5.921875 1.3125 5.921875 2.765625 C 5.921875 3.515625 5.609375 4.0625 4.921875 4.53125 C 4.921875 4.53125 5.765625 4.53125 5.765625 4.53125 C 5.765625 4.53125 5.765625 5.375 5.765625 5.375 C 5.765625 5.375 0.953125 5.375 0.953125 5.375 Z M 2.84375 4.4375 C 4.25 4.4375 5.078125 3.859375 5.078125 2.875 C 5.078125 1.890625 4.265625 1.28125 2.875 1.28125 C 1.484375 1.28125 0.6875 1.875 0.6875 2.875 C 0.6875 3.84375 1.46875 4.4375 2.84375 4.4375 Z M 2.84375 4.4375 "/>
</g>
<g id="glyph-21-0-d5bae4c8">
<path d="M 0 2.796875 C -0.0625 2.484375 -0.078125 2.265625 -0.078125 2.046875 C -0.078125 1.328125 0.25 0.9375 0.84375 0.9375 C 0.84375 0.9375 5.015625 0.9375 5.015625 0.9375 C 5.015625 0.9375 5.015625 0.15625 5.015625 0.15625 C 5.015625 0.15625 5.765625 0.15625 5.765625 0.15625 C 5.765625 0.15625 5.765625 0.9375 5.765625 0.9375 C 5.765625 0.9375 7.34375 0.9375 7.34375 0.9375 C 7.34375 0.9375 7.34375 1.84375 7.34375 1.84375 C 7.34375 1.84375 5.765625 1.84375 5.765625 1.84375 C 5.765625 1.84375 5.765625 2.796875 5.765625 2.796875 C 5.765625 2.796875 5.015625 2.796875 5.015625 2.796875 C 5.015625 2.796875 5.015625 1.84375 5.015625 1.84375 C 5.015625 1.84375 1.25 1.84375 1.25 1.84375 C 0.84375 1.84375 0.71875 1.953125 0.71875 2.359375 C 0.71875 2.53125 0.734375 2.671875 0.765625 2.796875 C 0.765625 2.796875 0 2.796875 0 2.796875 Z M 0 2.796875 "/>
</g>
<g id="glyph-21-1-d5bae4c8">
</g>
<g id="glyph-21-2-d5bae4c8">
<path d="M 0.015625 5.890625 C -0.0625 5.59375 -0.078125 5.4375 -0.078125 5.265625 C -0.078125 4.8125 0.234375 4.40625 0.6875 4.3125 C 0.140625 3.8125 -0.171875 3.09375 -0.171875 2.359375 C -0.171875 1.1875 0.453125 0.46875 1.5 0.46875 C 2.203125 0.46875 2.71875 0.796875 2.984375 1.46875 C 3.140625 1.828125 3.171875 2.03125 3.34375 3.328125 C 3.4375 4.046875 3.59375 4.28125 3.984375 4.28125 C 3.984375 4.28125 4.21875 4.28125 4.21875 4.28125 C 4.78125 4.28125 5.078125 3.8125 5.078125 2.984375 C 5.078125 2.140625 4.765625 1.71875 4.0625 1.640625 C 4.0625 1.640625 4.0625 0.71875 4.0625 0.71875 C 5.390625 0.765625 5.921875 1.625 5.921875 3.03125 C 5.921875 4.4375 5.375 5.1875 4.359375 5.1875 C 4.359375 5.1875 1.140625 5.1875 1.140625 5.1875 C 0.859375 5.1875 0.6875 5.375 0.6875 5.6875 C 0.6875 5.734375 0.6875 5.78125 0.71875 5.890625 C 0.71875 5.890625 0.015625 5.890625 0.015625 5.890625 Z M 1.984375 4.28125 C 1.984375 4.28125 2.84375 4.28125 2.84375 4.28125 C 2.703125 3.96875 2.65625 3.765625 2.53125 2.8125 C 2.390625 1.828125 2.125 1.421875 1.515625 1.421875 C 0.890625 1.421875 0.640625 1.84375 0.640625 2.546875 C 0.640625 3.4375 1.171875 4.28125 1.984375 4.28125 Z M 1.984375 4.28125 "/>
</g>
<g id="glyph-21-3-d5bae4c8">
<path d="M 0 1.65625 C 0 1.65625 0 0.75 0 0.75 C 0 0.75 8.015625 0.75 8.015625 0.75 C 8.015625 0.75 8.015625 1.65625 8.015625 1.65625 C 8.015625 1.65625 0 1.65625 0 1.65625 Z M 0 1.65625 "/>
</g>
<g id="glyph-22-0-d5bae4c8">
<path d="M 5.765625 7.78125 C 5.765625 7.78125 0 6.09375 0 6.09375 C 0 6.09375 0 5.046875 0 5.046875 C 0 5.046875 4.515625 3.890625 4.515625 3.890625 C 4.515625 3.890625 0 2.765625 0 2.765625 C 0 2.765625 0 1.734375 0 1.734375 C 0 1.734375 5.765625 0.0625 5.765625 0.0625 C 5.765625 0.0625 5.765625 1.078125 5.765625 1.078125 C 5.765625 1.078125 1.28125 2.25 1.28125 2.25 C 1.28125 2.25 5.765625 3.359375 5.765625 3.359375 C 5.765625 3.359375 5.765625 4.484375 5.765625 4.484375 C 5.765625 4.484375 1.28125 5.609375 1.28125 5.609375 C 1.28125 5.609375 5.765625 6.75 5.765625 6.75 C 5.765625 6.75 5.765625 7.78125 5.765625 7.78125 Z M 5.765625 7.78125 "/>
</g>
<g id="glyph-23-0-d5bae4c8">
<path d="M 0 1.65625 C 0 1.65625 0 0.75 0 0.75 C 0 0.75 8.015625 0.75 8.015625 0.75 C 8.015625 0.75 8.015625 1.65625 8.015625 1.65625 C 8.015625 1.65625 0 1.65625 0 1.65625 Z M 0 1.65625 "/>
</g>
</g>
</defs>
<rect x="-50" y="-50" width="600" height="600" fill="rgb(100%, 100%, 100%)" fill-opacity="1"/>
<path fill-rule="nonzero" fill="rgb(100%, 100%, 100%)" fill-opacity="1" d="M 26 484 L 474 484 L 474 36 L 26 36 Z M 26 484 "/>
<g fill="rgb(0%, 0%, 0%)" fill-opacity="1">
<use xlink:href="#glyph-0-0-d5bae4c8" x="151.972015" y="28.948"/>
</g>
<g fill="rgb(0%, 0%, 0%)" fill-opacity="1">
<use xlink:href="#glyph-1-0-d5bae4c8" x="160.526016" y="28.948"/>
</g>
<g fill="rgb(0%, 0%, 0%)" fill-opacity="1">
<use xlink:href="#glyph-0-1-d5bae4c8" x="164.418015" y="28.948"/>
</g>
<g fill="rgb(0%, 0%, 0%)" fill-opacity="1">
<use xlink:href="#glyph-1-1-d5bae4c8" x="172.972015" y="28.948"/>
</g>
<g fill="rgb(0%, 0%, 0%)" fill-opacity="1">
<use xlink:href="#glyph-0-1-d5bae4c8" x="177.634018" y="28.948"/>
</g>
<g fill="rgb(0%, 0%, 0%)" fill-opacity="1">
<use xlink:href="#glyph-0-2-d5bae4c8" x="186.188015" y="28.948"/>
</g>
<g fill="rgb(0%, 0%, 0%)" fill-opacity="1">
<use xlink:href="#glyph-0-3-d5bae4c8" x="191.634014" y="28.948"/>
</g>
<g fill="rgb(0%, 0%, 0%)" fill-opacity="1">
<use xlink:href="#glyph-0-4-d5bae4c8" x="195.526012" y="28.948"/>
</g>
<g fill="rgb(0%, 0%, 0%)" fill-opacity="1">
<use xlink:href="#glyph-0-5-d5bae4c8" x="203.310013" y="28.948"/>
</g>
<g fill="rgb(0%, 0%, 0%)" fill-opacity="1">
<use xlink:href="#glyph-0-6-d5bae4c8" x="211.094013" y="28.948"/>
</g>
<g fill="rgb(0%, 0%, 0%)" fill-opacity="1">
<use xlink:href="#glyph-0-7-d5bae4c8" x="219.64801" y="28.948"/>
</g>
<g fill="rgb(0%, 0%, 0%)" fill-opacity="1">
<use xlink:href="#glyph-0-8-d5bae4c8" x="223.540009" y="28.948"/>
</g>
<g fill="rgb(0%, 0%, 0%)" fill-opacity="1">
<use xlink:href="#glyph-2-0-d5bae4c8" x="231.324005" y="28.948"/>
</g>
<g fill="rgb(0%, 0%, 0%)" fill-opacity="1">
<use xlink:href="#glyph-0-4-d5bae4c8" x="239.108002" y="28.948"/>
</g>
<g fill="rgb(0%, 0%, 0%)" fill-opacity="1">
<use xlink:href="#glyph-2-1-d5bae4c8" x="246.891998" y="28.948"/>
</g>
<g fill="rgb(0%, 0%, 0%)" fill-opacity="1">
<use xlink:href="#glyph-2-2-d5bae4c8" x="250.783997" y="28.948"/>
</g>
<g fill="rgb(0%, 0%, 0%)" fill-opacity="1">
<use xlink:href="#glyph-3-0-d5bae4c8" x="255.445999" y="28.948"/>
</g>
<g fill="rgb(0%, 0%, 0%)" fill-opacity="1">
<use xlink:href="#glyph-4-0-d5bae4c8" x="263.229996" y="28.948"/>
</g>
<g fill="rgb(0%, 0%, 0%)" fill-opacity="1">
<use xlink:href="#glyph-0-9-d5bae4c8" x="267.121994" y="28.948"/>
</g>
<g fill="rgb(0%, 0%, 0%)" fill-opacity="1">
<use xlink:href="#glyph-0-7-d5bae4c8" x="281.121994" y="28.948"/>
</g>
<g fill="rgb(0%, 0%, 0%)" fill-opacity="1">
<use xlink:href="#glyph-0-10-d5bae4c8" x="285.013992" y="28.948"/>
</g>
<g fill="rgb(0%, 0%, 0%)" fill-opacity="1">
<use xlink:href="#glyph-0-5-d5bae4c8" x="293.567993" y="28.948"/>
</g>
<g fill="rgb(0%, 0%, 0%)" fill-opacity="1">
<use xlink:href="#glyph-0-11-d5bae4c8" x="301.35199" y="28.948"/>
</g>
<g fill="rgb(0%, 0%, 0%)" fill-opacity="1">
<use xlink:href="#glyph-0-12-d5bae4c8" x="309.905991" y="28.948"/>
</g>
<g fill="rgb(0%, 0%, 0%)" fill-opacity="1">
<use xlink:href="#glyph-0-5-d5bae4c8" x="322.35199" y="28.948"/>
</g>
<g fill="rgb(0%, 0%, 0%)" fill-opacity="1">
<use xlink:href="#glyph-4-1-d5bae4c8" x="330.135986" y="28.948"/>
</g>
<g fill="rgb(0%, 0%, 0%)" fill-opacity="1">
<use xlink:href="#glyph-0-2-d5bae4c8" x="334.797989" y="28.948"/>
</g>
<g fill="rgb(0%, 0%, 0%)" fill-opacity="1">
<use xlink:href="#glyph-0-13-d5bae4c8" x="340.243988" y="28.948"/>
</g>
<path fill-rule="nonzero" fill="rgb(70.19608%, 70.19608%, 70.19608%)" fill-opacity="1" stroke-width="1" stroke-linecap="butt" stroke-linejoin="miter" stroke="rgb(0%, 0%, 0%)" stroke-opacity="1" stroke-miterlimit="2" d="M 90 420 L 410 420 L 410 439.199219 L 90 439.199219 Z M 90 420 "/>
<path fill-rule="nonzero" fill="rgb(70.19608%, 70.19608%, 70.19608%)" fill-opacity="1" stroke-width="1" stroke-linecap="butt" stroke-linejoin="miter" stroke="rgb(0%, 0%, 0%)" stroke-opacity="1" stroke-miterlimit="2" d="M 90 420 L 70.800781 420 L 70.800781 100 L 90 100 Z M 90 420 "/>
<path fill-rule="nonzero" fill="rgb(70.19608%, 70.19608%, 70.19608%)" fill-opacity="1" stroke-width="1" stroke-linecap="butt" stroke-linejoin="miter" stroke="rgb(0%, 0%, 0%)" stroke-opacity="1" stroke-miterlimit="2" d="M 410 420 L 429.199219 420 L 429.199219 100 L 410 100 Z M 410 420 "/>
<path fill-rule="nonzero" fill="rgb(100%, 38.82353%, 27.843139%)" fill-opacity="1" stroke-width="1" stroke-linecap="butt" stroke-linejoin="miter" stroke="rgb(0%, 0%, 0%)" stroke-opacity="1" stroke-miterlimit="2" d="M 90 100 L 410 100 L 410 80.800781 L 90 80.800781 Z M 90 100 "/>
<path fill="none" stroke-width="3" stroke-linecap="butt" stroke-linejoin="miter" stroke="rgb(100%, 0%, 0%)" stroke-opacity="1" stroke-miterlimit="1.154701" d="M 122 90.398438 L 250 90.398438 "/>
<path fill-rule="nonzero" fill="rgb(100%, 0%, 0%)" fill-opacity="1" d="M 257.273438 90.398438 L 246.363281 84.945312 L 246.363281 95.855469 Z M 257.273438 90.398438 "/>
<g fill="rgb(100%, 0%, 0%)" fill-opacity="1">
<use xlink:href="#glyph-5-0-d5bae4c8" x="236.272005" y="52.365988"/>
</g>
<g fill="rgb(100%, 0%, 0%)" fill-opacity="1">
<use xlink:href="#glyph-5-1-d5bae4c8" x="243.500004" y="52.365988"/>
</g>
<g fill="rgb(100%, 0%, 0%)" fill-opacity="1">
<use xlink:href="#glyph-6-0-d5bae4c8" x="250.728004" y="52.365988"/>
</g>
<g fill="rgb(100%, 0%, 0%)" fill-opacity="1">
<use xlink:href="#glyph-7-0-d5bae4c8" x="253.614004" y="52.365988"/>
</g>
<g fill="rgb(100%, 0%, 0%)" fill-opacity="1">
<use xlink:href="#glyph-5-2-d5bae4c8" x="256.500003" y="52.365988"/>
</g>
<g fill="rgb(0%, 0%, 0%)" fill-opacity="1">
<use xlink:href="#glyph-8-0-d5bae4c8" x="222.186502" y="475.217006"/>
</g>
<g fill="rgb(0%, 0%, 0%)" fill-opacity="1">
<use xlink:href="#glyph-9-0-d5bae4c8" x="228.302501" y="475.217006"/>
</g>
<g fill="rgb(0%, 0%, 0%)" fill-opacity="1">
<use xlink:href="#glyph-9-1-d5bae4c8" x="234.418502" y="475.217006"/>
</g>
<g fill="rgb(0%, 0%, 0%)" fill-opacity="1">
<use xlink:href="#glyph-9-1-d5bae4c8" x="237.476503" y="475.217006"/>
</g>
<g fill="rgb(0%, 0%, 0%)" fill-opacity="1">
<use xlink:href="#glyph-10-0-d5bae4c8" x="240.534503" y="475.217006"/>
</g>
<g fill="rgb(0%, 0%, 0%)" fill-opacity="1">
<use xlink:href="#glyph-9-2-d5bae4c8" x="246.650503" y="475.217006"/>
</g>
<g fill="rgb(0%, 0%, 0%)" fill-opacity="1">
<use xlink:href="#glyph-10-1-d5bae4c8" x="255.813501" y="475.217006"/>
</g>
<g fill="rgb(0%, 0%, 0%)" fill-opacity="1">
<use xlink:href="#glyph-8-1-d5bae4c8" x="258.8715" y="475.217006"/>
</g>
<g fill="rgb(0%, 0%, 0%)" fill-opacity="1">
<use xlink:href="#glyph-9-3-d5bae4c8" x="266.813501" y="475.217006"/>
</g>
<g fill="rgb(0%, 0%, 0%)" fill-opacity="1">
<use xlink:href="#glyph-10-2-d5bae4c8" x="272.929502" y="475.217006"/>
</g>
<g fill="rgb(0%, 0%, 0%)" fill-opacity="1">
<use xlink:href="#glyph-8-2-d5bae4c8" x="275.371503" y="475.217006"/>
</g>
<g fill="rgb(0%, 0%, 0%)" fill-opacity="1">
<use xlink:href="#glyph-11-0-d5bae4c8" x="49.209493" y="278.336997"/>
</g>
<g fill="rgb(0%, 0%, 0%)" fill-opacity="1">
<use xlink:href="#glyph-11-1-d5bae4c8" x="49.209493" y="275.894998"/>
</g>
<g fill="rgb(0%, 0%, 0%)" fill-opacity="1">
<use xlink:href="#glyph-12-0-d5bae4c8" x="49.209493" y="269.778997"/>
</g>
<g fill="rgb(0%, 0%, 0%)" fill-opacity="1">
<use xlink:href="#glyph-13-0-d5bae4c8" x="49.209493" y="266.720997"/>
</g>
<g fill="rgb(0%, 0%, 0%)" fill-opacity="1">
<use xlink:href="#glyph-14-0-d5bae4c8" x="49.209494" y="263.662997"/>
</g>
<g fill="rgb(0%, 0%, 0%)" fill-opacity="1">
<use xlink:href="#glyph-15-0-d5bae4c8" x="49.209494" y="260.604996"/>
</g>
<g fill="rgb(0%, 0%, 0%)" fill-opacity="1">
<use xlink:href="#glyph-16-0-d5bae4c8" x="49.209494" y="252.662998"/>
</g>
<g fill="rgb(0%, 0%, 0%)" fill-opacity="1">
<use xlink:href="#glyph-17-0-d5bae4c8" x="49.209495" y="246.546999"/>
</g>
<g fill="rgb(0%, 0%, 0%)" fill-opacity="1">
<use xlink:href="#glyph-18-0-d5bae4c8" x="49.209495" y="244.104997"/>
</g>
<g fill="rgb(0%, 0%, 0%)" fill-opacity="1">
<use xlink:href="#glyph-19-0-d5bae4c8" x="450.790512" y="238.302495"/>
</g>
<g fill="rgb(0%, 0%, 0%)" fill-opacity="1">
<use xlink:href="#glyph-20-0-d5bae4c8" x="450.790512" y="241.965495"/>
</g>
<g fill="rgb(0%, 0%, 0%)" fill-opacity="1">
<use xlink:href="#glyph-20-1-d5bae4c8" x="450.790512" y="244.407493"/>
</g>
<g fill="rgb(0%, 0%, 0%)" fill-opacity="1">
<use xlink:href="#glyph-19-1-d5bae4c8" x="450.790512" y="250.523494"/>
</g>
<g fill="rgb(0%, 0%, 0%)" fill-opacity="1">
<use xlink:href="#glyph-21-0-d5bae4c8" x="450.790513" y="256.639495"/>
</g>
<g fill="rgb(0%, 0%, 0%)" fill-opacity="1">
<use xlink:href="#glyph-21-1-d5bae4c8" x="450.790513" y="259.697495"/>
</g>
<g fill="rgb(0%, 0%, 0%)" fill-opacity="1">
<use xlink:href="#glyph-22-0-d5bae4c8" x="450.790513" y="262.755496"/>
</g>
<g fill="rgb(0%, 0%, 0%)" fill-opacity="1">
<use xlink:href="#glyph-21-2-d5bae4c8" x="450.790513" y="270.697496"/>
</g>
<g fill="rgb(0%, 0%, 0%)" fill-opacity="1">
<use xlink:href="#glyph-23-0-d5bae4c8" x="450.790514" y="276.813496"/>
</g>
<g fill="rgb(0%, 0%, 0%)" fill-opacity="1">
<use xlink:href="#glyph-21-3-d5bae4c8" x="450.790514" y="279.255497"/>
</g>
</svg>
